<svg xmlns="http://www.w3.org/2000/svg" version="1.1" xmlns:xlink="http://www.w3.org/1999/xlink" xmlns:svgjs="http://svgjs.dev/svgjs" width="100%" height="100%" viewBox="0 0 1000 600"><rect width="1000" height="600" x="0" y="0" fill="#ffffff"/><g><circle r="166.66666666666666" cx="481.724833170573" cy="503.94705197648955" fill="#423dcc" transform="matrix(0.39675215995517943,0,0,0.39675215995517943,0,100.05792401541699)"/><path d="M371.94347971302193 578.9470748851767L354.47894012843466 578.9470748851767L354.47894012843466 428.9470699251682L413.84655438467126 428.9470699251682Q438.1077845013314 428.9470699251682 450.9919456838696 440.23548637408925Q463.84655603800746 451.49435199461 463.84655603800746 472.3572368452337L463.84655603800746 472.3572368452337Q463.84655603800746 488.9352515778114 454.8040025475105 499.5735498019255Q445.7614490570135 510.2118480260396 429.1834343244357 513.4033374932737L429.1834343244357 513.4033374932737Q438.9647585249406 516.8312335877106 445.9683048558157 530.0109030542519L445.9683048558157 530.0109030542519L472.35719461729866 578.9470748851767L453.20825781389334 578.9470748851767L427.26263047841513 530.8678770778611Q422.3571929639625 521.913976072565 415.9742140294941 518.7224866053309Q409.59123509502564 515.5309971380966 399.1597926697138 515.5309971380966L399.1597926697138 515.5309971380966L371.94347971302193 515.5309971380966L371.94347971302193 578.9470748851767ZM371.94347971302193 443.42697584132344L371.94347971302193 501.70120944674835L411.305183142244 501.70120944674835Q446.6184230806227 501.70120944674835 446.6184230806227 472.3572368452337L446.6184230806227 472.3572368452337Q446.6184230806227 443.42697584132344 411.305183142244 443.42697584132344L411.305183142244 443.42697584132344L371.94347971302193 443.42697584132344ZM559.3843842562319 578.9470748851767L496.82528053276104 578.9470748851767L496.82528053276104 428.9470699251682L556.8430130138045 428.9470699251682Q580.010862479653 428.9470699251682 592.688167863389 439.26030903687877Q605.3359224187245 449.5735481485894 605.3359224187245 468.10191755558805L605.3359224187245 468.10191755558805Q605.3359224187245 480.42461299852016 598.9529434842561 489.17165820501396Q592.5699645497875 497.88915258310743 581.311098929267 501.9376160739509L581.311098929267 501.9376160739509Q594.2839125970061 505.3359613399873 601.6125180402846 514.4671673156852Q608.9706743119634 523.6279241197835 608.9706743119634 537.664567609934L608.9706743119634 537.664567609934Q608.9706743119634 557.6704784369485 595.9683098158241 568.3087766610626Q582.9954961480851 578.9470748851767 559.3843842562319 578.9470748851767L559.3843842562319 578.9470748851767ZM513.8465576913436 442.98371341531873L513.8465576913436 495.96834873708684L554.272090942977 495.96834873708684Q588.1077894613397 495.96834873708684 588.1077894613397 469.57945897560387L588.1077894613397 469.57945897560387Q588.1077894613397 442.98371341531873 554.272090942977 442.98371341531873L554.272090942977 442.98371341531873L513.8465576913436 442.98371341531873ZM513.8465576913436 510.0049922272374L513.8465576913436 564.9104313950261L557.6704362090134 564.9104313950261Q591.7129905261784 564.9104313950261 591.7129905261784 537.4577118111317L591.7129905261784 537.4577118111317Q591.7129905261784 510.0049922272374 557.6704362090134 510.0049922272374L557.6704362090134 510.0049922272374L513.8465576913436 510.0049922272374Z " fill="#ffffff" transform="matrix(0.39675215995517943,0,0,0.39675215995517943,0,100.05792401541699)"/><path d="M748.9685395871064 577.0505522403367L731.724812634545 577.0505522403367L731.724812634545 428.94706998787996L790.3418133920677 428.94706998787996Q814.296297026675 428.94706998787996 827.0175575195968 440.0927615206693Q839.7096408095532 451.20927585049316 839.7096408095532 471.80838114407754L839.7096408095532 471.80838114407754Q839.7096408095532 488.1767920076765 830.7814167021356 498.6805850752266Q821.853192594718 509.1843781427767 805.4847817311191 512.3355160630417L805.4847817311191 512.3355160630417Q815.1424359126721 515.7200716070301 822.057433015476 528.7331041296061L822.057433015476 528.7331041296061L848.1126752635934 577.0505522403367L829.2058477420031 577.0505522403367L803.588263538367 529.5792430156032Q798.7448478461077 520.7385505170819 792.4425720055777 517.5874125968169Q786.1402961650476 514.4362746765518 775.8407435182554 514.4362746765518L775.8407435182554 514.4362746765518L748.9685395871064 514.4362746765518L748.9685395871064 577.0505522403367ZM748.9685395871064 443.2438994409343L748.9685395871064 500.7813436887366L787.8325739370418 500.7813436887366Q822.6993314807152 500.7813436887366 822.6993314807152 471.80838114407754L822.6993314807152 471.80838114407754Q822.6993314807152 443.2438994409343 787.8325739370418 443.2438994409343L787.8325739370418 443.2438994409343L748.9685395871064 443.2438994409343ZM913.6738503268854 578.9470704330887L913.6738503268854 578.9470704330887Q889.5151262715201 578.9470704330887 875.4225372392236 564.7669497918962Q861.3591254098927 550.5868291507034 861.3591254098927 526.2238646745802L861.3591254098927 526.2238646745802Q861.3591254098927 510.46817507325505 867.6614012504227 498.3888130455724Q873.9636770909528 486.3094510178898 884.9926598118805 479.68622594474016Q896.0216425328081 473.0630008715905 910.5227124066204 473.0630008715905L910.5227124066204 473.0630008715905Q931.2968809179972 473.0630008715905 943.0844709160257 486.39698262678604Q954.8428837110887 499.7309643819816 954.8428837110887 523.0727267543152L954.8428837110887 523.0727267543152L954.8428837110887 529.5792430156032L877.960953897215 529.5792430156032Q878.7779155802466 546.9980331859572 888.0270889202837 556.1596749170981Q897.276262260321 565.2921394452736 913.6738503268854 565.2921394452736L913.6738503268854 565.2921394452736Q922.8938464639572 565.2921394452736 931.2968809179972 562.4619507576281Q939.6999153720374 559.6025848670172 947.2859881430458 553.0960686057292L947.2859881430458 553.0960686057292L953.1506059390946 565.0878990245158Q946.2356088362907 571.5944152858036 935.4983981450172 575.2707428594462Q924.7903646567092 578.9470704330887 913.6738503268854 578.9470704330887ZM910.9311932481362 485.66755255265065L910.9311932481362 485.66755255265065Q896.4301233743239 485.66755255265065 888.0270889202837 494.7124854719299Q879.6240544662437 503.72824118824377 878.1651943179728 518.433551482814L878.1651943179728 518.433551482814L940.1375734165185 518.433551482814Q939.4956749512794 502.88210230224666 932.0554881950981 494.27482742744866Q924.5861242359513 485.66755255265065 910.9311932481362 485.66755255265065ZM1013.8683653101273 578.9470704330887L1013.8683653101273 578.9470704330887Q1001.9057120943063 578.9470704330887 991.1685014030329 575.5916920920657Q980.4604679147249 572.2071365480775 973.5454708119211 566.1382783312706L973.5454708119211 566.1382783312706L979.001607766454 554.1464479124843Q986.558503334497 560.2444833322566 995.6909678626726 563.074672019902Q1004.8234323908481 565.9048607075474 1014.2768461516431 565.9048607075474L1014.2768461516431 565.9048607075474Q1026.2686765704293 565.9048607075474 1032.3667119902016 561.4991030597694Q1038.4355702070084 557.0933454119913 1038.4355702070084 549.5364498439485L1038.4355702070084 549.5364498439485Q1038.4355702070084 543.6426548449342 1034.4674706037117 540.1705676920496Q1030.4701937974496 536.7276577421303 1021.8629189226516 534.8311395493783L1021.8629189226516 534.8311395493783L1002.722673777338 530.6296223223583Q976.6966087321861 524.940067744102 976.6966087321861 503.72824118824377L976.6966087321861 503.72824118824377Q976.6966087321861 489.86906977967067 987.7255914531137 481.46603532563057Q998.7545741740413 473.0630008715905 1016.6110223888764 473.0630008715905L1016.6110223888764 473.0630008715905Q1027.1148154564266 473.0630008715905 1036.6557608261178 476.3308476037172Q1046.2258833987748 479.5695171328785 1052.5281592393048 485.87179297340856L1052.5281592393048 485.87179297340856L1046.8386046610485 497.86362339219494Q1040.7697464442417 492.1740688139386 1032.6584840198557 489.1396397055352Q1024.576398798435 486.0760333941665 1016.6110223888764 486.0760333941665L1016.6110223888764 486.0760333941665Q1004.8234323908481 486.0760333941665 998.7545741740413 490.7152086656678Q992.6565387542691 495.3252067342036 992.6565387542691 502.88210230224666L992.6565387542691 502.88210230224666Q992.6565387542691 514.6696923002751 1008.2079879348363 518.025070641298L1008.2079879348363 518.025070641298L1027.3190558771844 522.0223474475602Q1040.7697464442417 524.940067744102 1047.6847435470454 531.3590523964937Q1054.628917852815 537.7780370488854 1054.628917852815 548.6903109579514L1054.628917852815 548.6903109579514Q1054.628917852815 562.7537227872824 1043.4832263200256 570.8649852116683Q1032.3667119902016 578.9470704330887 1013.8683653101273 578.9470704330887ZM1116.6012969513604 578.9470704330887L1116.6012969513604 578.9470704330887Q1079.838021214935 578.9470704330887 1079.838021214935 538.3907583111591L1079.838021214935 538.3907583111591L1079.838021214935 474.9595190643426L1096.848330543773 474.9595190643426L1096.848330543773 538.1865178904012Q1096.848330543773 551.8414488782164 1102.421176310168 558.3479651395044Q1107.9940220765625 564.8544814007923 1119.9566752923834 564.8544814007923L1119.9566752923834 564.8544814007923Q1132.9697078149593 564.8544814007923 1141.1685018482417 556.1596749170981Q1149.3672958815237 547.4356912304384 1149.3672958815237 532.9346213566262L1149.3672958815237 532.9346213566262L1149.3672958815237 474.9595190643426L1166.3776052103617 474.9595190643426L1166.3776052103617 577.0505522403367L1149.7757767230396 577.0505522403367L1149.7757767230396 559.8360024907406Q1144.9615382337456 569.0559986278123 1136.2375545470863 574.0161231319333Q1127.5135708604266 578.9470704330887 1116.6012969513604 578.9470704330887ZM1215.7454326278475 577.0505522403367L1198.7351232990095 577.0505522403367L1198.7351232990095 474.9595190643426L1215.3369517863316 474.9595190643426L1215.3369517863316 492.1740688139386Q1219.9469498548674 482.9248954739014 1228.1457438881498 477.99394817274595Q1236.3445379214318 473.0630008715905 1247.2568118304976 473.0630008715905L1247.2568118304976 473.0630008715905Q1271.2112954651052 473.0630008715905 1277.9220521471511 493.8663465859328L1277.9220521471511 493.8663465859328Q1282.5612274186524 484.20869240437975 1291.5769831349662 478.63584663798514Q1300.6219160542455 473.0630008715905 1312.3803288493086 473.0630008715905L1312.3803288493086 473.0630008715905Q1346.4301247099502 473.0630008715905 1346.4301247099502 513.3858953697968L1346.4301247099502 513.3858953697968L1346.4301247099502 577.0505522403367L1329.3906381781467 577.0505522403367L1329.3906381781467 514.2320342557939Q1329.3906381781467 500.1686224264629 1324.4596908769913 493.5453973533132Q1319.5287435758355 486.9221722801636 1308.1788116222883 486.9221722801636L1308.1788116222883 486.9221722801636Q1295.7785003619865 486.9221722801636 1288.425845214701 495.7628647786849Q1281.073190067416 504.5743800742408 1281.073190067416 519.2796903688111L1281.073190067416 519.2796903688111L1281.073190067416 577.0505522403367L1264.0628807385779 577.0505522403367L1264.0628807385779 514.2320342557939Q1264.0628807385779 500.1686224264629 1259.1319334374225 493.5453973533132Q1254.2009861362671 486.9221722801636 1242.85105418272 486.9221722801636L1242.85105418272 486.9221722801636Q1230.24650250166 486.9221722801636 1223.0105561662363 495.7628647786849Q1215.7454326278475 504.5743800742408 1215.7454326278475 519.2796903688111L1215.7454326278475 519.2796903688111L1215.7454326278475 577.0505522403367ZM1424.1581934098213 578.9470704330887L1424.1581934098213 578.9470704330887Q1399.9994693544559 578.9470704330887 1385.9068803221594 564.7669497918962Q1371.8434684928284 550.5868291507034 1371.8434684928284 526.2238646745802L1371.8434684928284 526.2238646745802Q1371.8434684928284 510.46817507325505 1378.1457443333584 498.3888130455724Q1384.4480201738888 486.3094510178898 1395.4770028948165 479.68622594474016Q1406.505985615744 473.0630008715905 1421.007055489556 473.0630008715905L1421.007055489556 473.0630008715905Q1441.781224000933 473.0630008715905 1453.5688139989616 486.39698262678604Q1465.3272267940247 499.7309643819816 1465.3272267940247 523.0727267543152L1465.3272267940247 523.0727267543152L1465.3272267940247 529.5792430156032L1388.445296980151 529.5792430156032Q1389.2622586631824 546.9980331859572 1398.5114320032199 556.1596749170981Q1407.7606053432569 565.2921394452736 1424.1581934098213 565.2921394452736L1424.1581934098213 565.2921394452736Q1433.3781895468928 565.2921394452736 1441.781224000933 562.4619507576281Q1450.1842584549731 559.6025848670172 1457.7703312259814 553.0960686057292L1457.7703312259814 553.0960686057292L1463.6349490220305 565.0878990245158Q1456.7199519192263 571.5944152858036 1445.9827412279528 575.2707428594462Q1435.2747077396452 578.9470704330887 1424.1581934098213 578.9470704330887ZM1421.415536331072 485.66755255265065L1421.415536331072 485.66755255265065Q1406.9144664572596 485.66755255265065 1398.5114320032199 494.7124854719299Q1390.1083975491792 503.72824118824377 1388.6495374009087 518.433551482814L1388.6495374009087 518.433551482814L1450.6219164994545 518.433551482814Q1449.9800180342154 502.88210230224666 1442.539831278034 494.27482742744866Q1435.070467318887 485.66755255265065 1421.415536331072 485.66755255265065ZM1607.9745720919482 577.0505522403367L1546.2064334141605 577.0505522403367L1546.2064334141605 428.94706998787996L1605.4361554339566 428.94706998787996Q1628.3402597618092 428.94706998787996 1640.8281026310078 439.12991382281047Q1653.3451227031715 449.31275765774103 1653.3451227031715 467.6068639170575L1653.3451227031715 467.6068639170575Q1653.3451227031715 479.77375755363636 1647.042846862642 488.4102096313998Q1640.7405710221115 497.01748450619783 1629.594879489322 501.01476131245994L1629.594879489322 501.01476131245994Q1642.4036715911402 504.3701396534829 1649.668795129529 513.3858953697968Q1656.9047414649526 522.4308282890761 1656.9047414649526 536.2899996976491L1656.9047414649526 536.2899996976491Q1656.9047414649526 556.0429661052365 1644.0959493631344 566.5467591727866Q1631.2871572613162 577.0505522403367 1607.9745720919482 577.0505522403367L1607.9745720919482 577.0505522403367ZM1563.0125023222408 442.80624139645306L1563.0125023222408 495.12096631344576L1602.926915978931 495.12096631344576Q1636.3348133743334 495.12096631344576 1636.3348133743334 469.06572406532837L1636.3348133743334 469.06572406532837Q1636.3348133743334 442.80624139645306 1602.926915978931 442.80624139645306L1602.926915978931 442.80624139645306L1563.0125023222408 442.80624139645306ZM1563.0125023222408 508.9801377220188L1563.0125023222408 563.1913808317636L1606.282294319954 563.1913808317636Q1639.8944321361141 563.1913808317636 1639.8944321361141 536.0857592768912L1639.8944321361141 536.0857592768912Q1639.8944321361141 508.9801377220188 1606.282294319954 508.9801377220188L1606.282294319954 508.9801377220188L1563.0125023222408 508.9801377220188ZM1722.0282584837632 578.9470704330887L1722.0282584837632 578.9470704330887Q1685.2649827473379 578.9470704330887 1685.2649827473379 538.3907583111591L1685.2649827473379 538.3907583111591L1685.2649827473379 474.9595190643426L1702.275292076176 474.9595190643426L1702.275292076176 538.1865178904012Q1702.275292076176 551.8414488782164 1707.8481378425704 558.3479651395044Q1713.4209836089653 564.8544814007923 1725.3836368247862 564.8544814007923L1725.3836368247862 564.8544814007923Q1738.4258465503276 564.8544814007923 1746.6246405836096 556.1596749170981Q1754.7942574139265 547.4356912304384 1754.7942574139265 532.9346213566262L1754.7942574139265 532.9346213566262L1754.7942574139265 474.9595190643426L1771.83374394573 474.9595190643426L1771.83374394573 577.0505522403367L1755.231915458408 577.0505522403367L1755.231915458408 559.8360024907406Q1750.3884997661485 569.0559986278123 1741.6645160794887 574.0161231319333Q1732.9697095957945 578.9470704330887 1722.0282584837632 578.9470704330887ZM1822.6604315114864 449.5461752814644L1801.6528453763863 449.5461752814644L1801.6528453763863 430.40593013615086L1822.6604315114864 430.40593013615086L1822.6604315114864 449.5461752814644ZM1820.7639133187345 577.0505522403367L1803.7536039898964 577.0505522403367L1803.7536039898964 474.9595190643426L1820.7639133187345 474.9595190643426L1820.7639133187345 577.0505522403367ZM1883.786671724035 578.9470704330887L1883.786671724035 578.9470704330887Q1868.235222543468 578.9470704330887 1860.357377742805 569.8146059049133Q1852.4795329421427 560.6529641737723 1852.4795329421427 543.2341740034183L1852.4795329421427 543.2341740034183L1852.4795329421427 428.94706998787996L1869.5190194739462 428.94706998787996L1869.5190194739462 541.9795542759055Q1869.5190194739462 564.4460005592765 1887.3754676887816 564.4460005592765L1887.3754676887816 564.4460005592765Q1892.6273642225565 564.4460005592765 1896.8288814495763 563.1913808317636L1896.8288814495763 563.1913808317636L1896.3912234050954 577.4590330818525Q1889.8847071438072 578.9470704330887 1883.786671724035 578.9470704330887ZM1952.4989847075922 578.9470704330887L1952.4989847075922 578.9470704330887Q1938.844053719777 578.9470704330887 1928.632032681881 572.4405541718007Q1918.4491888469506 565.9048607075474 1912.8763430805557 554.0589163035881Q1907.3326745171266 542.1837946966634 1907.3326745171266 525.9904470508569L1907.3326745171266 525.9904470508569Q1907.3326745171266 509.62203618725795 1912.8763430805557 497.7469145803332Q1918.4491888469506 485.87179297340856 1928.632032681881 479.48198552398225Q1938.844053719777 473.0630008715905 1952.4989847075922 473.0630008715905L1952.4989847075922 473.0630008715905Q1964.461637923413 473.0630008715905 1973.5941024515887 478.3148974053655Q1982.7265669797644 483.5667939391406 1987.1615018305079 492.81596727917776L1987.1615018305079 492.81596727917776L1987.1615018305079 428.94706998787996L2004.171811159346 428.94706998787996L2004.171811159346 577.0505522403367L1987.5699826720233 577.0505522403367L1987.5699826720233 558.3479651395044Q1983.1642250242453 568.0056193210575 1973.9150516842083 573.4909334785558Q1964.6658783441708 578.9470704330887 1952.4989847075922 578.9470704330887ZM1956.0586034693729 565.2921394452736L1956.0586034693729 565.2921394452736Q1970.355432922427 565.2921394452736 1978.9627077972254 555.1092956103431Q1987.5699826720233 544.8972745724471 1987.5699826720233 525.9904470508569L1987.5699826720233 525.9904470508569Q1987.5699826720233 506.8793791085088 1978.9627077972254 496.8132440854399Q1970.355432922427 486.7179318594056 1956.0586034693729 486.7179318594056L1956.0586034693729 486.7179318594056Q1941.557533595561 486.7179318594056 1933.0669675326244 496.8132440854399Q1924.5472242667229 506.8793791085088 1924.5472242667229 525.9904470508569L1924.5472242667229 525.9904470508569Q1924.5472242667229 544.8972745724471 1933.0669675326244 555.1092956103431Q1941.557533595561 565.2921394452736 1956.0586034693729 565.2921394452736ZM2082.1041202799743 578.9470704330887L2082.1041202799743 578.9470704330887Q2057.945396224609 578.9470704330887 2043.8819843952783 564.7669497918962Q2029.7893953629818 550.5868291507034 2029.7893953629818 526.2238646745802L2029.7893953629818 526.2238646745802Q2029.7893953629818 510.46817507325505 2036.0916712035119 498.3888130455724Q2042.3939470440419 486.3094510178898 2053.422929764969 479.68622594474016Q2064.451912485897 473.0630008715905 2078.9529823597095 473.0630008715905L2078.9529823597095 473.0630008715905Q2099.7563280740515 473.0630008715905 2111.5147408691146 486.39698262678604Q2123.2731536641777 499.7309643819816 2123.2731536641777 523.0727267543152L2123.2731536641777 523.0727267543152L2123.2731536641777 529.5792430156032L2046.391223850304 529.5792430156032Q2047.2373627363008 546.9980331859572 2056.486536076338 556.1596749170981Q2065.7065322134094 565.2921394452736 2082.1041202799743 565.2921394452736L2082.1041202799743 565.2921394452736Q2091.3532936200118 565.2921394452736 2099.7563280740515 562.4619507576281Q2108.159362528092 559.6025848670172 2115.716258096135 553.0960686057292L2115.716258096135 553.0960686057292L2121.610053095149 565.0878990245158Q2114.6658787893793 571.5944152858036 2103.9578453010718 575.2707428594462Q2093.2498118127633 578.9470704330887 2082.1041202799743 578.9470704330887ZM2079.361463201225 485.66755255265065L2079.361463201225 485.66755255265065Q2064.8895705303785 485.66755255265065 2056.486536076338 494.7124854719299Q2048.083501622298 503.72824118824377 2046.5954642710622 518.433551482814L2046.5954642710622 518.433551482814L2108.5678433696075 518.433551482814Q2107.9551221073334 502.88210230224666 2100.4857581481865 494.27482742744866Q2093.0163941890396 485.66755255265065 2079.361463201225 485.66755255265065ZM2165.0840855136203 577.0505522403367L2147.8695357640245 577.0505522403367L2147.8695357640245 474.9595190643426L2164.442187048381 474.9595190643426L2164.442187048381 493.22444812069364Q2172.640981081663 474.75527864358463 2198.0543248645417 472.85876045083256L2198.0543248645417 472.85876045083256L2204.1523602843135 472.21686198559337L2205.406980011826 486.9221722801636L2194.6989465235183 488.1767920076765Q2180.197876649706 489.46058893815484 2172.640981081663 497.3384337388174Q2165.0840855136203 505.21627853948 2165.0840855136203 518.8712095272952L2165.0840855136203 518.8712095272952L2165.0840855136203 577.0505522403367Z " fill="#423dcc" transform="matrix(0.39675215995517943,0,0,0.39675215995517943,0,100.05792401541699)"/></g></svg>